<svg width="118" height="88" viewBox="0 0 118 88" fill="none" xmlns="http://www.w3.org/2000/svg">
<path d="M16.74 79.53C16.74 79.53 18.6333 74.2867 22.42 63.8C26.22 53.3133 29.62 43.7467 32.62 35.1C35.6267 26.46 37.7833 20.2167 39.09 16.37C40.4033 12.53 41.3867 9.70668 42.04 7.90002C42.6933 6.08668 43.62 4.35668 44.82 2.71001C46.02 1.05668 47.9 0.253351 50.46 0.300017C53.02 0.353351 54.9933 1.02002 56.38 2.30002C57.7667 3.58668 58.9267 4.77335 59.86 5.86001C60.8 6.94668 61.9833 8.79668 63.41 11.41C64.8367 14.0234 66.07 16.1033 67.11 17.65C68.1433 19.2033 69.4067 21.5633 70.9 24.73C72.3933 27.89 73.73 30.4567 74.91 32.43C76.0967 34.3967 77.6467 36.87 79.56 39.85C81.48 42.83 83.0167 45.1367 84.17 46.77C85.3233 48.41 87.2267 51.33 89.88 55.53C92.5333 59.73 94.6067 62.8967 96.1 65.03C97.5933 67.1567 99.05 69.0067 100.47 70.58C101.883 72.1534 103.067 73.4867 104.02 74.58C104.967 75.6734 106.11 76.81 107.45 77.99C108.783 79.17 109.567 79.9 109.8 80.18C110.027 80.4533 110.22 80.75 110.38 81.07C110.533 81.39 110.65 81.7267 110.73 82.08C110.803 82.4334 110.833 82.79 110.82 83.15C110.813 83.51 110.76 83.8633 110.66 84.21C110.567 84.5567 110.43 84.8867 110.25 85.2C110.077 85.5133 109.867 85.8 109.62 86.06C109.373 86.3267 109.097 86.5567 108.79 86.75C108.49 86.9433 108.17 87.1 107.83 87.22C107.49 87.34 107.14 87.4134 106.78 87.44C106.42 87.4734 106.063 87.4633 105.71 87.41C105.35 87.3567 105.003 87.26 104.67 87.12C104.343 86.9867 104.033 86.8133 103.74 86.6C103.453 86.3867 102.273 85.94 100.2 85.26C98.1267 84.58 95.86 83.4633 93.4 81.91C90.94 80.3633 88.52 78.86 86.14 77.4C83.76 75.94 80.9467 74.3133 77.7 72.52C74.4467 70.7267 70.2167 68.4767 65.01 65.77C59.8033 63.0633 54.8767 60.6567 50.23 58.55C45.5767 56.4433 41.34 54.7567 37.52 53.49C33.7067 52.2233 30.28 51.0133 27.24 49.86C24.2 48.7067 21.47 47.7233 19.05 46.91C16.6233 46.0967 14.4033 45.59 12.39 45.39C10.3767 45.1833 8.34667 44.8467 6.3 44.38C4.25334 43.9067 3.34667 43.7133 3.58 43.8C3.80667 43.8867 3.75667 43.8567 3.43 43.71C3.09667 43.5633 2.78667 43.3767 2.5 43.15C2.22 42.93 1.96667 42.6767 1.74 42.39C1.52 42.11 1.33334 41.8067 1.18 41.48C1.03334 41.1467 0.926671 40.8033 0.860004 40.45C0.793337 40.0967 0.773336 39.74 0.800003 39.38C0.820003 39.02 0.883336 38.6667 0.990003 38.32C1.09667 37.9733 1.24334 37.6467 1.43 37.34C1.61667 37.0267 1.83667 36.7434 2.09 36.49C2.34334 36.23 2.62334 36.0067 2.93 35.82C3.24334 35.6333 3.57 35.4867 3.91 35.38C4.25667 35.2733 4.61 35.21 4.97 35.19C5.33 35.1633 5.68667 35.1833 6.04 35.25C6.4 35.31 9.58667 34.87 15.6 33.93C21.6067 32.9833 30.39 32.1333 41.95 31.38C53.5033 30.6267 64.1167 29.9233 73.79 29.27C83.4567 28.61 91.27 27.87 97.23 27.05C103.183 26.2367 107.54 25.6567 110.3 25.31C113.06 24.97 114.563 24.7967 114.81 24.79C115.057 24.7833 115.303 24.8067 115.55 24.86C115.79 24.9133 116.02 24.9933 116.24 25.1C116.467 25.2067 116.673 25.34 116.86 25.5C117.053 25.66 117.223 25.84 117.37 26.04C117.517 26.24 117.637 26.4567 117.73 26.69C117.823 26.9167 117.887 27.1533 117.92 27.4C117.96 27.6467 117.967 27.8933 117.94 28.14C117.92 28.3867 117.867 28.6267 117.78 28.86C117.7 29.0933 117.593 29.3133 117.46 29.52C117.327 29.7267 117.167 29.9167 116.98 30.09C116.8 30.2567 116.603 30.4 116.39 30.52C116.17 30.64 115.94 30.7333 115.7 30.8C115.467 30.8667 114.59 31.3967 113.07 32.39C111.557 33.3833 105.397 36.6433 94.59 42.17C83.7767 47.7033 74.4233 52.3133 66.53 56C58.6367 59.6867 52.6333 62.4933 48.52 64.42C44.4067 66.3467 41.51 67.7833 39.83 68.73C38.1433 69.6833 37.1267 70.21 36.78 70.31C36.4333 70.41 36.08 70.4533 35.72 70.44C35.36 70.4267 35.0133 70.3567 34.68 70.23C34.3467 70.0967 34.04 69.9167 33.76 69.69C33.4867 69.4633 33.2533 69.1967 33.06 68.89C32.8733 68.5833 32.7367 68.2534 32.65 67.9C32.57 67.5534 32.5467 67.2 32.58 66.84C32.6133 66.4867 32.7033 66.1433 32.85 65.81C32.9967 65.4833 33.1933 65.19 33.44 64.93C33.68 64.6633 33.96 64.4433 34.28 64.27C34.5933 64.0967 34.9267 63.98 35.28 63.92C35.6333 63.8533 35.9867 63.8467 36.34 63.9C36.7 63.9533 37.04 64.0633 37.36 64.23C37.68 64.39 37.9633 64.6 38.21 64.86C38.4633 65.12 38.6667 65.41 38.82 65.73C38.98 66.0567 39.08 66.3967 39.12 66.75C39.1667 67.11 39.1533 67.4667 39.08 67.82C39.0067 68.1733 38.88 68.5033 38.7 68.81C38.52 69.1233 38.2933 69.3967 38.02 69.63C37.7467 69.87 37.4433 70.0567 37.11 70.19C36.7833 70.33 36.44 70.4133 36.08 70.44C35.72 70.46 35.3667 70.4234 35.02 70.33C34.6733 70.2434 34.35 70.1 34.05 69.9C33.75 69.7 33.49 69.46 33.27 69.18C33.0433 68.8933 32.87 68.5833 32.75 68.25C32.6367 67.91 32.5767 67.56 32.57 67.2C32.5633 66.84 32.6167 66.49 32.73 66.15C32.8367 65.8034 32.9967 65.4867 33.21 65.2C33.4233 64.9133 33.6767 64.6667 33.97 64.46C34.27 64.2533 34.42 64.15 34.42 64.15C34.42 64.15 35.3167 63.79 37.11 63.07C38.91 62.35 41.85 60.99 45.93 58.99C50.0167 56.99 55.9467 54.1133 63.72 50.36C71.5 46.6067 80.76 41.9 91.5 36.24C102.233 30.58 108.74 27.2567 111.02 26.27C113.3 25.29 114.563 24.7967 114.81 24.79C115.057 24.7833 115.3 24.8067 115.54 24.86C115.787 24.9133 116.02 24.9933 116.24 25.1C116.467 25.2067 116.673 25.34 116.86 25.5C117.053 25.66 117.223 25.84 117.37 26.04C117.517 26.24 117.637 26.4567 117.73 26.69C117.823 26.9167 117.887 27.1533 117.92 27.4C117.96 27.6467 117.967 27.8933 117.94 28.14C117.92 28.3867 117.867 28.6267 117.78 28.86C117.7 29.0933 117.593 29.3133 117.46 29.52C117.327 29.7267 117.167 29.9167 116.98 30.09C116.8 30.2567 116.603 30.4 116.39 30.52C116.17 30.64 115.94 30.7333 115.7 30.8C115.467 30.8667 113.977 31.11 111.23 31.53C108.483 31.95 104.063 32.6467 97.97 33.62C91.8767 34.5933 83.9967 35.5067 74.33 36.36C64.67 37.2133 54.15 38.14 42.77 39.14C31.3833 40.1333 23.1133 41.0567 17.96 41.91C12.7933 42.7633 9.16334 43.3133 7.07 43.56C4.97 43.8067 3.75667 43.8567 3.43 43.71C3.09667 43.5633 2.78667 43.3767 2.5 43.15C2.22 42.93 1.96667 42.6767 1.74 42.39C1.52 42.11 1.33334 41.8067 1.18 41.48C1.03334 41.1467 0.926671 40.8033 0.860004 40.45C0.793337 40.0967 0.773336 39.74 0.800003 39.38C0.820003 39.02 0.883336 38.6667 0.990003 38.32C1.09667 37.9733 1.24334 37.6467 1.43 37.34C1.61667 37.0267 1.83667 36.7434 2.09 36.49C2.34334 36.2367 2.62334 36.0133 2.93 35.82C3.24334 35.6333 3.57 35.4867 3.91 35.38C4.25667 35.2733 4.61 35.21 4.97 35.19C5.33 35.1633 5.68667 35.1833 6.04 35.25C6.4 35.31 7.25667 35.72 8.61 36.48C9.97 37.2333 11.77 38.03 14.01 38.87C16.25 39.7033 18.5833 40.57 21.01 41.47C23.4367 42.37 26.14 43.3567 29.12 44.43C32.1 45.51 35.6067 46.6867 39.64 47.96C43.6667 49.2333 48.0767 50.9 52.87 52.96C57.6633 55.0267 62.7067 57.36 68 59.96C73.2867 62.56 77.6333 64.6933 81.04 66.36C84.4467 68.0333 87.3833 69.5033 89.85 70.77C92.3167 72.0433 94.86 73.32 97.48 74.6C100.1 75.8733 101.97 77.0133 103.09 78.02C104.21 79.0333 105.55 79.5767 107.11 79.65C108.67 79.7234 109.567 79.9 109.8 80.18C110.027 80.4533 110.22 80.75 110.38 81.07C110.533 81.39 110.65 81.7267 110.73 82.08C110.803 82.4334 110.833 82.79 110.82 83.15C110.813 83.51 110.76 83.8633 110.66 84.21C110.567 84.5567 110.43 84.8867 110.25 85.2C110.077 85.5133 109.867 85.8 109.62 86.06C109.373 86.3267 109.097 86.5567 108.79 86.75C108.49 86.9433 108.17 87.1 107.83 87.22C107.49 87.34 107.14 87.4134 106.78 87.44C106.42 87.4734 106.063 87.4633 105.71 87.41C105.35 87.3567 105.003 87.26 104.67 87.12C104.343 86.9867 104.033 86.8133 103.74 86.6C103.453 86.3867 103.19 86.0267 102.95 85.52C102.71 85.02 101.67 83.58 99.83 81.2C97.99 78.82 96.35 76.7367 94.91 74.95C93.4767 73.1633 91.9533 71.1867 90.34 69.02C88.7267 66.8533 86.49 63.7233 83.63 59.63C80.7767 55.53 78.8567 52.6533 77.87 51C76.89 49.3467 75.2933 47.04 73.08 44.08C70.8733 41.12 69.1133 38.5933 67.8 36.5C66.4867 34.4133 64.9933 31.9833 63.32 29.21C61.6467 26.4367 60.31 24.25 59.31 22.65C58.3033 21.05 57.02 19.2033 55.46 17.11C53.8933 15.0167 52.56 13 51.46 11.06C50.36 9.12001 49.4233 8.90002 48.65 10.4C47.8767 11.8933 46.9167 14.6067 45.77 18.54C44.6233 22.4733 42.66 28.8167 39.88 37.57C37.1067 46.3167 33.9767 55.99 30.49 66.59C27.0033 77.1767 25.18 82.6333 25.02 82.96C24.8667 83.2867 24.6733 83.59 24.44 83.87C24.2067 84.1433 23.9433 84.39 23.65 84.61C23.3567 84.8233 23.0433 85 22.71 85.14C22.3767 85.2733 22.03 85.37 21.67 85.43C21.31 85.4833 20.9533 85.4933 20.6 85.46C20.24 85.4267 19.8867 85.35 19.54 85.23C19.2 85.11 18.8767 84.9534 18.57 84.76C18.2633 84.56 17.9867 84.33 17.74 84.07C17.4933 83.8033 17.28 83.5133 17.1 83.2C16.92 82.88 16.7833 82.5467 16.69 82.2C16.59 81.8467 16.5333 81.49 16.52 81.13C16.5133 80.77 16.5467 80.4133 16.62 80.06C16.7 79.7067 16.74 79.53 16.74 79.53Z" fill="black"/>
</svg>
