<?xml version="1.0" standalone="no"?>
<!DOCTYPE svg PUBLIC "-//W3C//DTD SVG 20010904//EN"
 "http://www.w3.org/TR/2001/REC-SVG-20010904/DTD/svg10.dtd">
<svg version="1.0" xmlns="http://www.w3.org/2000/svg"
 width="1024.000000pt" height="1024.000000pt" viewBox="0 0 1024.000000 1024.000000"
 preserveAspectRatio="xMidYMid meet">

<g transform="translate(0.000000,1024.000000) scale(0.100000,-0.100000)"
fill="#000000" stroke="none">
<path d="M5089 8926 c-210 -48 -388 -208 -468 -419 -52 -140 -49 -280 10 -443
63 -173 216 -338 353 -379 16 -5 13 -12 -26 -58 -71 -82 -142 -127 -463 -286
-463 -231 -554 -289 -708 -450 -97 -103 -165 -222 -215 -381 -60 -190 -64
-238 -69 -773 -4 -352 -2 -501 7 -535 16 -67 77 -155 167 -243 105 -103 166
-151 310 -242 128 -81 694 -371 841 -431 135 -55 269 -86 374 -86 178 0 415
73 604 188 55 32 185 102 289 154 398 199 604 347 731 524 91 127 87 96 85
618 -1 254 -6 520 -11 593 -19 250 -98 440 -256 615 -128 140 -240 213 -634
414 -47 24 -125 66 -175 94 -92 51 -190 100 -203 100 -25 0 -216 174 -201 183
2 1 36 17 74 36 105 52 196 149 262 282 60 120 76 186 76 319 0 111 -21 189
-80 297 -68 125 -221 252 -352 294 -82 26 -241 34 -322 15z m279 -168 c127
-48 246 -163 291 -282 75 -200 36 -386 -113 -545 -136 -143 -354 -178 -537
-86 -72 37 -169 136 -208 213 -133 264 -48 561 195 675 44 20 104 41 134 46
72 13 172 4 238 -21z m-219 -1993 l-3 -845 -115 123 c-63 67 -294 302 -513
522 -219 220 -398 405 -398 410 0 6 10 15 23 21 187 92 712 363 742 384 22 15
86 73 141 129 56 56 107 101 113 101 10 0 12 -188 10 -845z m334 654 c40 -28
108 -69 152 -91 44 -22 172 -90 285 -151 113 -61 246 -130 297 -154 51 -24 93
-46 93 -51 0 -4 -193 -198 -429 -432 -236 -234 -466 -466 -512 -516 l-84 -91
0 831 0 831 63 -63 c35 -35 96 -86 135 -113z m-1436 -571 c125 -136 341 -356
581 -593 146 -143 321 -322 389 -398 l125 -138 3 -389 4 -389 -77 -25 c-80
-27 -191 -87 -244 -131 -17 -14 -37 -25 -45 -23 -8 2 -57 77 -108 168 -51 91
-107 187 -124 214 -26 41 -43 96 -91 300 -32 138 -64 289 -70 336 -6 47 -24
150 -40 230 -16 80 -33 180 -39 223 -6 43 -18 91 -26 107 -13 26 -21 30 -55
30 -37 0 -80 -26 -80 -48 0 -4 -5 -44 -10 -89 -9 -72 -21 -103 -93 -250 -111
-228 -240 -445 -306 -515 -50 -54 -88 -84 -96 -76 -2 2 0 199 5 438 9 486 14
523 81 695 55 142 103 219 189 302 41 40 75 73 77 73 1 0 24 -23 50 -52z
m2518 -101 c71 -93 119 -188 150 -292 25 -84 27 -110 36 -400 5 -170 13 -384
17 -475 5 -91 7 -166 6 -168 -6 -10 -65 33 -111 80 -63 65 -212 301 -249 394
-15 38 -49 122 -76 186 -44 109 -48 124 -48 203 0 79 -2 86 -25 101 -33 21
-90 11 -109 -19 -8 -12 -19 -56 -26 -97 -6 -41 -36 -183 -66 -315 -191 -838
-167 -748 -231 -846 -24 -37 -70 -123 -104 -193 -33 -69 -63 -126 -66 -126 -4
0 -37 18 -74 40 -72 43 -185 91 -260 111 l-45 12 -1 403 -2 404 548 547 c301
302 556 560 566 576 l18 27 51 -43 c28 -24 74 -73 101 -110z m-2325 -977 c16
-80 41 -194 55 -255 14 -60 27 -118 29 -128 4 -17 3 -17 -12 -4 -9 8 -48 33
-87 55 -69 40 -141 64 -239 77 l-48 7 24 26 c62 67 136 196 199 347 38 93 32
103 79 -125z m2129 -113 c28 -48 51 -91 51 -96 0 -5 7 -14 15 -21 24 -20 18
-27 -30 -33 -64 -9 -202 -68 -275 -117 -46 -31 -61 -38 -56 -24 24 61 89 342
116 504 6 36 13 72 17 80 3 9 26 -28 58 -96 28 -61 75 -150 104 -197z m-2285
-317 c81 -31 168 -93 266 -190 73 -73 101 -111 193 -266 59 -99 107 -189 107
-200 0 -11 -7 -30 -17 -43 -16 -23 -15 -25 6 -42 24 -19 82 -39 116 -39 11 0
68 32 125 72 169 115 311 169 399 153 20 -4 88 -34 151 -67 63 -33 133 -70
155 -81 22 -11 82 -27 133 -36 50 -8 92 -19 92 -22 0 -21 -61 -74 -119 -103
-119 -61 -332 -116 -442 -116 -165 0 -382 62 -558 158 -58 32 -180 96 -271
142 -210 105 -419 222 -490 273 -78 57 -185 163 -231 229 l-39 56 36 32 c133
116 246 143 388 90z m2576 -31 c50 -33 94 -67 97 -75 7 -20 -73 -128 -153
-205 -106 -101 -254 -194 -561 -351 -163 -83 -173 -87 -173 -65 0 17 -10 28
-35 40 -20 9 -42 17 -50 17 -30 0 -16 31 92 209 103 169 177 263 257 329 149
122 236 161 357 162 l77 0 92 -61z"/>
<path d="M7605 8286 c-66 -29 -113 -119 -102 -198 11 -81 83 -148 159 -148 18
0 51 9 74 19 130 59 130 263 0 322 -48 22 -89 23 -131 5z"/>
<path d="M3138 8040 c-14 -86 -28 -122 -45 -116 -12 5 -13 4 -4 -7 8 -11 7
-18 -7 -31 -10 -9 -22 -13 -25 -9 -4 3 -7 1 -7 -5 0 -6 -6 -9 -14 -6 -7 3 -62
-2 -121 -10 -101 -14 -109 -14 -121 2 -8 9 -14 13 -14 9 0 -4 -10 -3 -22 3
-23 11 -23 11 -3 -5 103 -85 232 -80 332 13 36 33 66 121 61 174 -3 31 -4 30
-10 -12z"/>
<path d="M3564 7600 c-30 -12 -64 -58 -64 -87 0 -32 26 -80 49 -93 11 -5 35
-10 55 -10 42 0 96 48 96 86 0 41 -29 85 -65 100 -39 16 -42 16 -71 4z"/>
<path d="M2355 7380 c-16 -17 -17 -31 -11 -112 13 -190 71 -388 148 -507 55
-84 177 -206 250 -250 134 -78 248 -109 445 -118 163 -7 163 -7 163 92 0 200
-72 411 -193 564 -80 100 -246 211 -396 262 -80 28 -329 89 -361 89 -15 0 -35
-9 -45 -20z m273 -160 c174 -61 255 -100 320 -154 127 -105 215 -244 257 -405
22 -87 20 -90 -37 -34 -120 115 -282 253 -298 253 -14 0 -17 -7 -15 -27 9 -83
26 -106 160 -223 58 -50 105 -96 105 -102 0 -32 -218 39 -314 102 -137 90
-228 215 -281 388 -28 92 -55 252 -42 252 2 0 67 -22 145 -50z"/>
<path d="M7955 7393 c-315 -70 -415 -111 -564 -230 -192 -153 -295 -363 -308
-625 -4 -87 -3 -121 7 -133 9 -11 33 -15 94 -15 270 0 472 75 629 234 147 150
219 331 249 628 10 99 10 110 -7 128 -17 19 -52 24 -100 13z m-38 -235 c-44
-212 -105 -345 -202 -443 -106 -107 -222 -163 -352 -172 -68 -5 -71 -5 -75 17
-4 29 -38 37 -38 8 0 -26 -24 -18 -28 10 -5 36 34 174 73 256 59 125 188 247
345 326 49 26 243 88 276 89 l21 1 -20 -92z"/>
<path d="M7800 7127 c0 -8 7 -17 15 -21 8 -3 15 -2 15 3 0 5 -7 14 -15 21 -12
10 -15 10 -15 -3z"/>
<path d="M7050 6206 c0 -30 4 -35 28 -40 54 -10 1091 -11 1101 -1 5 6 7 22 4
36 -4 23 -11 27 -56 33 -29 3 -283 6 -564 6 l-513 0 0 -34z"/>
<path d="M2272 6217 c-8 -9 -12 -26 -10 -39 l3 -23 490 3 c270 2 507 5 528 8
31 5 37 10 37 30 l0 24 -233 0 c-129 0 -362 3 -518 7 -253 5 -285 4 -297 -10z"/>
<path d="M7060 6016 l0 -36 328 0 c181 0 431 -3 556 -7 l227 -6 -3 38 -3 38
-552 5 -553 4 0 -36z"/>
<path d="M2267 6033 c-4 -3 -7 -20 -7 -36 l0 -30 167 6 c91 4 337 7 545 7
l379 0 -3 28 -3 27 -536 3 c-294 1 -539 -1 -542 -5z"/>
<path d="M2264 5857 c-10 -28 0 -62 19 -61 9 0 258 1 552 2 l535 2 0 24 c0 14
-3 27 -7 29 -5 3 -252 8 -550 12 -480 6 -544 5 -549 -8z"/>
<path d="M7060 5837 l0 -34 542 -5 c298 -3 548 -3 556 -1 8 4 12 18 10 37 l-3
31 -552 3 -553 2 0 -33z"/>
<path d="M7060 5648 l0 -38 253 0 c874 -2 840 -4 835 49 l-3 24 -542 1 -543 2
0 -38z"/>
<path d="M2284 5654 c-4 -14 -3 -29 2 -33 5 -4 252 -5 549 -2 539 6 540 6 543
27 3 19 -3 22 -74 27 -42 4 -288 7 -545 7 l-469 0 -6 -26z"/>
<path d="M2330 5465 l0 -35 515 0 515 0 0 29 c0 16 -6 31 -13 34 -7 2 -239 5
-515 6 l-502 2 0 -36z"/>
<path d="M7078 5493 c-13 -3 -18 -14 -18 -37 l0 -33 507 -5 c279 -3 513 -3
520 -1 16 6 27 47 19 68 -5 13 -69 15 -508 14 -277 -1 -511 -3 -520 -6z"/>
<path d="M2374 5296 c-3 -8 -4 -23 -2 -33 3 -17 27 -18 488 -14 267 2 487 5
489 7 2 2 1 15 -3 29 l-6 25 -481 0 c-408 0 -480 -2 -485 -14z"/>
<path d="M7072 5298 c-7 -7 -12 -23 -12 -37 l0 -26 481 -3 c355 -2 485 0 495
9 8 6 14 24 14 40 l0 29 -483 0 c-362 0 -486 -3 -495 -12z"/>
<path d="M2435 5120 c-3 -5 0 -22 7 -37 l13 -26 405 2 c223 1 426 4 453 8 50
6 59 20 31 47 -14 14 -69 16 -459 16 -284 0 -446 -4 -450 -10z"/>
<path d="M7060 5101 c0 -11 -3 -27 -6 -35 -6 -15 37 -16 457 -14 l464 3 0 30
0 30 -457 3 c-447 2 -458 2 -458 -17z"/>
<path d="M2518 4934 c-3 -3 -3 -17 1 -32 l7 -27 141 -3 c77 -1 257 1 400 6
221 7 263 11 277 25 15 15 15 17 -3 27 -21 10 -813 15 -823 4z"/>
<path d="M7067 4923 c-13 -13 -7 -61 9 -67 9 -3 190 -6 404 -6 416 0 402 -2
415 53 l7 27 -414 0 c-228 0 -418 -3 -421 -7z"/>
<path d="M3265 4703 c-202 -45 -324 -134 -402 -293 -104 -213 -103 -398 4
-578 118 -199 277 -300 724 -457 223 -79 225 -80 173 -94 -59 -16 -153 -75
-201 -126 -48 -52 -83 -136 -83 -200 0 -175 184 -336 466 -407 127 -32 401
-32 550 0 195 42 573 159 704 218 56 25 65 26 94 15 17 -7 72 -24 121 -37 50
-13 128 -37 174 -54 46 -17 177 -54 290 -83 l206 -51 175 -1 c155 0 184 3 255
24 218 64 344 151 402 279 22 47 25 64 20 120 -8 84 -35 138 -101 200 -52 49
-178 122 -213 122 -30 1 -2 13 192 84 355 131 440 170 546 252 81 62 145 138
184 219 159 329 59 648 -250 801 l-98 49 -111 0 c-242 -2 -428 -87 -941 -431
-553 -371 -815 -544 -852 -562 -34 -16 -35 -16 -106 20 -64 33 -167 97 -462
289 -49 32 -160 100 -247 151 -220 131 -335 203 -436 275 -114 82 -384 216
-486 243 -75 19 -233 26 -291 13z m220 -153 c77 -29 215 -208 284 -367 71
-163 193 -397 252 -483 32 -47 103 -141 158 -210 54 -69 96 -129 94 -133 -12
-20 -227 13 -301 45 -26 12 -103 40 -172 64 -401 137 -538 196 -650 282 -173
132 -239 300 -196 495 18 80 53 156 89 195 37 40 122 90 178 105 63 18 226 22
264 7z m3716 -13 c75 -31 124 -71 176 -141 111 -150 109 -356 -6 -524 -85
-126 -196 -196 -441 -280 -80 -27 -199 -71 -265 -97 -129 -51 -262 -101 -447
-171 -64 -24 -140 -55 -168 -69 -44 -23 -50 -23 -41 -7 5 10 29 36 53 58 171
159 316 365 445 630 45 95 92 196 104 225 21 55 104 199 146 256 35 45 120
108 173 127 71 24 203 21 271 -7z m-3321 -167 c41 -34 122 -89 180 -124 812
-491 896 -542 993 -608 l69 -46 -56 -33 c-132 -79 -324 -204 -362 -235 l-40
-33 -84 32 c-69 26 -97 43 -153 96 -95 90 -207 226 -290 351 -66 100 -354 660
-339 660 4 0 41 -27 82 -60z m2694 3 c-33 -50 -62 -107 -83 -161 -44 -111
-186 -382 -264 -502 -136 -209 -308 -406 -433 -496 -94 -66 -311 -171 -564
-272 -362 -144 -554 -205 -759 -238 -137 -22 -387 -15 -507 15 -205 51 -349
160 -330 252 14 73 105 154 221 199 92 36 301 40 450 10 63 -13 135 -35 167
-51 32 -16 68 -29 82 -29 48 0 366 188 747 441 136 90 269 178 295 195 27 17
108 70 179 119 72 49 247 167 390 263 143 96 278 190 300 207 45 37 106 75
119 75 4 0 0 -12 -10 -27z m40 -1221 c124 -58 192 -150 167 -225 -12 -34 -86
-113 -127 -134 -30 -16 -133 -50 -194 -64 -67 -15 -250 -15 -356 1 -173 26
-482 120 -540 165 -27 21 -15 26 144 70 76 21 171 51 212 67 41 16 94 36 118
45 24 8 71 27 105 43 58 26 138 52 197 64 14 2 67 3 118 1 77 -3 103 -8 156
-33z"/>
<path d="M8390 4521 c14 -11 21 -21 15 -21 -5 0 -3 -5 5 -10 10 -6 11 -10 3
-10 -7 0 -27 -16 -45 -36 -58 -65 -92 -94 -117 -101 -14 -3 -36 -12 -50 -19
-14 -8 -41 -17 -58 -20 -18 -3 -33 -10 -33 -15 0 -16 -39 -9 -49 9 -22 37 -11
-63 13 -113 59 -126 197 -186 311 -136 72 32 107 62 139 121 68 125 19 284
-107 346 -43 21 -48 22 -27 5z"/>
</g>
</svg>
