<svg width="84" height="110" viewBox="0 0 84 110" fill="none" xmlns="http://www.w3.org/2000/svg">
<path d="M1.03002 106.39C1.03002 106.39 0.903353 105.44 0.65002 103.54C0.403353 101.627 0.276686 98.8333 0.27002 95.16C0.27002 91.4867 0.563353 88.2533 1.15002 85.46C1.73669 82.6667 2.33335 80.0733 2.94002 77.68C3.55335 75.2933 4.31335 72.8133 5.22002 70.24C6.12669 67.6667 7.06002 65.2267 8.02002 62.92C8.98002 60.6133 9.82335 58.5667 10.55 56.78C11.2767 54.9933 12.81 52.7667 15.15 50.1C17.4834 47.4267 19.5267 45.29 21.28 43.69C23.0267 42.09 25.4567 40.56 28.57 39.1C31.69 37.6467 34.2567 36.4833 36.27 35.61C38.2834 34.73 40.17 33.8967 41.93 33.11C43.69 32.33 45.6567 31.57 47.83 30.83C50.0034 30.0967 52.4834 29.3967 55.27 28.73C58.0567 28.07 60.17 27.6733 61.61 27.54C63.05 27.4067 64.5434 27.3067 66.09 27.24C67.6434 27.1733 68.68 27.18 69.2 27.26C69.72 27.3333 70.2134 27.49 70.68 27.73C71.1467 27.9633 71.5634 28.27 71.93 28.65C72.3034 29.0233 72.6034 29.4467 72.83 29.92C73.0567 30.3933 73.2034 30.89 73.27 31.41C73.3367 31.93 73.32 32.4467 73.22 32.96C73.1134 33.4733 72.93 33.96 72.67 34.42C72.4034 34.8733 72.0734 35.2733 71.68 35.62C71.2867 35.9667 70.8467 36.2433 70.36 36.45C69.88 36.65 69.3767 36.77 68.85 36.81C68.33 36.85 67.8134 36.8033 67.3 36.67C66.7934 36.5367 66.32 36.3267 65.88 36.04C65.44 35.7533 65.0567 35.4033 64.73 34.99C64.4034 34.5767 64.1534 34.1233 63.98 33.63C63.8 33.1367 63.7067 32.6267 63.7 32.1C63.6867 31.5733 63.76 31.06 63.92 30.56C64.08 30.06 64.3167 29.5967 64.63 29.17C64.9367 28.75 65.3067 28.3867 65.74 28.08C66.1667 27.78 66.63 27.5567 67.13 27.41C67.6367 27.2567 68.1534 27.19 68.68 27.21C69.2067 27.23 69.7134 27.3333 70.2 27.52C70.6934 27.7067 71.1434 27.9633 71.55 28.29C71.9567 28.6233 72.3 29.0133 72.58 29.46C72.86 29.9067 73.06 30.3867 73.18 30.9C73.3 31.4067 73.3367 31.9233 73.29 32.45C73.2434 32.97 73.1134 33.47 72.9 33.95C72.6867 34.43 72.4034 34.8667 72.05 35.26C71.6967 35.6467 71.29 35.9667 70.83 36.22C70.37 36.4733 69.8834 36.6467 69.37 36.74C68.85 36.8333 68.59 36.88 68.59 36.88C68.59 36.88 67.2 36.87 64.42 36.85C61.6334 36.83 59.13 36.9033 56.91 37.07C54.6834 37.2367 52.5534 37.64 50.52 38.28C48.4934 38.9133 46.5667 39.55 44.74 40.19C42.92 40.83 41.06 41.4867 39.16 42.16C37.2534 42.8333 35.0534 43.8167 32.56 45.11C30.0667 46.3967 28.0534 47.6633 26.52 48.91C24.9934 50.1633 23.3434 51.9067 21.57 54.14C19.7967 56.3733 18.4967 58.3033 17.67 59.93C16.85 61.5567 15.9934 63.43 15.1 65.55C14.2134 67.6767 13.4067 69.9567 12.68 72.39C11.9534 74.83 11.32 77.1433 10.78 79.33C10.24 81.5167 9.81335 83.8867 9.50002 86.44C9.19335 88.9933 8.96002 91.8633 8.80002 95.05C8.64669 98.2433 8.63669 100.8 8.77002 102.72C8.90335 104.647 8.96669 105.767 8.96002 106.08C8.95335 106.4 8.90669 106.717 8.82002 107.03C8.74002 107.337 8.62335 107.63 8.47002 107.91C8.31002 108.19 8.12335 108.45 7.91002 108.69C7.69002 108.923 7.44669 109.13 7.18002 109.31C6.91335 109.483 6.62669 109.623 6.32002 109.73C6.02002 109.837 5.71002 109.907 5.39002 109.94C5.07669 109.973 4.76002 109.967 4.44002 109.92C4.12669 109.873 3.82002 109.79 3.52002 109.67C3.22002 109.55 2.94002 109.397 2.68002 109.21C2.42002 109.023 2.18669 108.807 1.98002 108.56C1.77335 108.313 1.59669 108.047 1.45002 107.76C1.31002 107.473 1.20335 107.173 1.13002 106.86C1.06335 106.547 1.03002 106.39 1.03002 106.39Z" fill="black"/>
<path d="M47.73 1.36001C47.73 1.36001 49.2133 2.57334 52.18 5.00001C55.1466 7.43334 58.4766 10.0433 62.17 12.83C65.8633 15.6167 68.9 18.0267 71.28 20.06C73.6533 22.0933 75.4933 23.57 76.8 24.49C78.1 25.4167 79.36 26.5967 80.58 28.03C81.7933 29.4633 82.6033 31.0333 83.01 32.74C83.4233 34.4533 83.59 36.2967 83.51 38.27C83.4366 40.2433 83.13 41.9033 82.59 43.25C82.05 44.5967 81.1233 46.2233 79.81 48.13C78.5033 50.0367 77.4433 51.7 76.63 53.12C75.8233 54.5467 74.68 56.27 73.2 58.29C71.7266 60.31 70.3233 62.55 68.99 65.01C67.65 67.47 66.8033 68.9167 66.45 69.35C66.1033 69.7833 65.6933 70.15 65.22 70.45C64.7533 70.75 64.2466 70.9667 63.7 71.1C63.16 71.2333 62.6133 71.2767 62.06 71.23C61.5 71.1833 60.9633 71.05 60.45 70.83C59.9366 70.61 59.4733 70.3133 59.06 69.94C58.6466 69.5667 58.3033 69.1367 58.03 68.65C57.7566 68.1633 57.5666 67.6467 57.46 67.1C57.3533 66.5467 57.34 65.9933 57.42 65.44C57.4933 64.8867 57.6566 64.36 57.91 63.86C58.1566 63.3667 58.4766 62.92 58.87 62.52C59.27 62.1267 59.72 61.8067 60.22 61.56C60.72 61.3133 61.2466 61.1533 61.8 61.08C62.3533 61.0067 62.9033 61.0233 63.45 61.13C63.9966 61.2367 64.5133 61.4267 65 61.7C65.4866 61.9733 65.9166 62.32 66.29 62.74C66.6633 63.1533 66.9566 63.6167 67.17 64.13C67.39 64.6433 67.5233 65.18 67.57 65.74C67.6166 66.2933 67.57 66.8433 67.43 67.39C67.2966 67.93 67.08 68.4333 66.78 68.9C66.4733 69.3733 66.1033 69.7833 65.67 70.13C65.2366 70.4767 64.7566 70.7467 64.23 70.94C63.7033 71.1333 63.1633 71.2367 62.61 71.25C62.05 71.2633 61.5033 71.1867 60.97 71.02C60.4366 70.86 59.9433 70.6167 59.49 70.29C59.0366 69.9633 58.6466 69.57 58.32 69.11C58 68.6567 57.7566 68.1633 57.59 67.63C57.43 67.0967 57.3566 66.55 57.37 65.99C57.39 65.4367 57.4966 64.8967 57.69 64.37C57.8833 63.85 57.98 63.59 57.98 63.59C57.98 63.59 58.38 62.93 59.18 61.61C59.9866 60.29 60.8066 59.0067 61.64 57.76C62.4733 56.5067 63.4833 54.91 64.67 52.97C65.8566 51.0233 66.92 49.2567 67.86 47.67C68.7933 46.0833 69.76 44.5033 70.76 42.93C71.76 41.3567 72.5833 39.79 73.23 38.23C73.87 36.6767 74.1433 35.19 74.05 33.77C73.95 32.3567 73.35 31.1067 72.25 30.02C71.1433 28.9333 69.4 27.49 67.02 25.69C64.64 23.89 61.5033 21.68 57.61 19.06C53.71 16.4467 50.1766 14.0567 47.01 11.89C43.85 9.72334 42.1366 8.51334 41.87 8.26001C41.61 8.00667 41.38 7.72667 41.18 7.42001C40.9866 7.10667 40.83 6.77667 40.71 6.43001C40.5966 6.08334 40.5233 5.72667 40.49 5.36001C40.4633 5.00667 40.48 4.64667 40.54 4.28001C40.5933 3.92001 40.6933 3.57001 40.84 3.23001C40.98 2.89667 41.16 2.58334 41.38 2.29001C41.6 1.99667 41.8533 1.73334 42.14 1.50001C42.42 1.26667 42.7266 1.07334 43.06 0.920006C43.3933 0.760006 43.74 0.643339 44.1 0.570006C44.4533 0.496672 44.81 0.466672 45.17 0.480006C45.5366 0.493339 45.8966 0.553339 46.25 0.660005C46.6033 0.760005 46.94 0.900006 47.26 1.08001C47.5733 1.26667 47.73 1.36001 47.73 1.36001Z" fill="black"/>
</svg>
