<svg width="32" height="29" viewBox="0 0 32 29" fill="none" xmlns="http://www.w3.org/2000/svg">
<path d="M7.36479 21.5141C7.36479 21.5141 8.16479 21.3141 9.76479 20.9141C11.3648 20.5141 13.0715 19.9074 14.8848 19.0941C16.6981 18.2741 18.2448 17.5741 19.5248 16.9941C20.7981 16.4141 21.9381 15.8808 22.9448 15.3941C23.9515 14.9074 24.7748 14.4574 25.4148 14.0441C26.0548 13.6308 26.6581 13.1874 27.2248 12.7141C27.7848 12.2408 28.1481 11.9708 28.3148 11.9041C28.4748 11.8374 28.6415 11.7874 28.8148 11.7541C28.9881 11.7274 29.1615 11.7208 29.3348 11.7341C29.5081 11.7541 29.6781 11.7908 29.8448 11.8441C30.0115 11.8974 30.1681 11.9708 30.3148 12.0641C30.4681 12.1641 30.6048 12.2774 30.7248 12.4041C30.8448 12.5308 30.9481 12.6674 31.0348 12.8141C31.1215 12.9674 31.1915 13.1308 31.2448 13.3041C31.2915 13.4708 31.3181 13.6408 31.3248 13.8141C31.3315 13.9941 31.3181 14.1674 31.2848 14.3341C31.2448 14.5074 31.1881 14.6741 31.1148 14.8341C31.0415 14.9941 30.9481 15.1408 30.8348 15.2741C30.7215 15.4074 30.5948 15.5274 30.4548 15.6341C30.3148 15.7408 29.7215 15.7474 28.6748 15.6541C27.6281 15.5674 26.4948 15.4241 25.2748 15.2241C24.0548 15.0241 22.9381 14.8774 21.9248 14.7841C20.9115 14.6974 19.8515 14.6041 18.7448 14.5041C17.6381 14.4108 16.0481 14.2174 13.9748 13.9241C11.9015 13.6308 10.2181 13.4008 8.92479 13.2341C7.63812 13.0741 6.47145 12.9308 5.42479 12.8041C4.37812 12.6841 3.61479 12.6308 3.13479 12.6441C2.66145 12.6574 2.34479 12.6408 2.18479 12.5941C2.01812 12.5474 1.86479 12.4808 1.72479 12.3941C1.57812 12.3074 1.44479 12.2041 1.32479 12.0841C1.20479 11.9708 1.09812 11.8408 1.00479 11.6941C0.91812 11.5541 0.84812 11.4041 0.794787 11.2441C0.741454 11.0841 0.711453 10.9208 0.704787 10.7541C0.691453 10.5874 0.69812 10.4208 0.724787 10.2541C0.751453 10.0874 0.79812 9.92743 0.864787 9.7741C0.931453 9.62077 1.01812 9.47743 1.12479 9.3441C1.22479 9.21077 1.33812 9.09077 1.46479 8.9841C1.59812 8.87743 1.74145 8.78743 1.89479 8.7141C2.04812 8.64743 2.20812 8.59743 2.37479 8.5641C2.53479 8.53077 2.70145 8.51743 2.87479 8.5241C3.04145 8.53077 3.72145 8.92743 4.91479 9.7141C6.10812 10.5008 7.38145 11.4208 8.73479 12.4741C10.0948 13.5208 11.2448 14.3774 12.1848 15.0441C13.1248 15.7041 14.1648 16.4508 15.3048 17.2841C16.4448 18.1174 17.4815 18.8341 18.4148 19.4341C19.3548 20.0341 20.1748 20.5374 20.8748 20.9441C21.5748 21.3508 22.3248 21.7708 23.1248 22.2041C23.9248 22.6374 24.4348 22.8674 24.6548 22.8941C24.8748 22.9208 25.0681 22.9874 25.2348 23.0941C25.4015 23.1941 25.5515 23.3141 25.6848 23.4541C25.8248 23.5874 25.9448 23.7374 26.0448 23.9041C26.1448 24.0774 26.2215 24.2574 26.2748 24.4441C26.3348 24.6308 26.3681 24.8208 26.3748 25.0141C26.3815 25.2074 26.3681 25.4008 26.3348 25.5941C26.2948 25.7874 26.2348 25.9741 26.1548 26.1541C26.0748 26.3274 25.9715 26.4908 25.8448 26.6441C25.7248 26.7974 25.5881 26.9341 25.4348 27.0541C25.2748 27.1741 25.1048 27.2708 24.9248 27.3441C24.7515 27.4241 24.5681 27.4808 24.3748 27.5141C24.1815 27.5474 23.9848 27.5574 23.7848 27.5441C23.5915 27.5308 23.4015 27.4941 23.2148 27.4341C23.0281 27.3741 22.6948 26.3574 22.2148 24.3841C21.7348 22.4108 21.4381 20.8641 21.3248 19.7441C21.2181 18.6241 21.0581 17.2508 20.8448 15.6241C20.6381 13.9974 20.4381 12.5508 20.2448 11.2841C20.0448 10.0174 19.8181 8.93077 19.5648 8.0241C19.3048 7.11743 19.0748 6.29077 18.8748 5.5441C18.6748 4.79743 18.9748 4.3541 19.7748 4.2141C20.5815 4.08077 20.7648 4.69077 20.3248 6.0441C19.8848 7.39077 19.3615 8.67077 18.7548 9.8841C18.1481 11.0908 17.4448 12.5208 16.6448 14.1741C15.8381 15.8274 14.9815 17.3608 14.0748 18.7741C13.1681 20.1874 12.3115 21.4674 11.5048 22.6141C10.6915 23.7608 9.93812 24.8674 9.24479 25.9341C8.55145 27.0008 8.13479 27.6041 7.99479 27.7441C7.86812 27.8774 7.71812 27.9874 7.54479 28.0741C7.36479 28.1674 7.17812 28.2274 6.98479 28.2541C6.79145 28.2741 6.59812 28.2674 6.40479 28.2341C6.21812 28.2008 6.03812 28.1341 5.86479 28.0341C5.69145 27.9408 5.54145 27.8208 5.41479 27.6741C5.28145 27.5274 5.17812 27.3641 5.10479 27.1841C5.02479 27.0041 4.97812 26.8174 4.96479 26.6241C4.94479 26.4308 4.95812 26.2374 5.00479 26.0441C5.05145 25.8574 5.12812 25.6808 5.23479 25.5141C5.34145 25.3474 5.47145 25.2041 5.62479 25.0841C5.77812 24.9641 5.94479 24.8708 6.12479 24.8041C6.31145 24.7308 6.50145 24.6941 6.69479 24.6941C6.88812 24.6874 7.07812 24.7108 7.26479 24.7641C7.45145 24.8241 7.62479 24.9108 7.78479 25.0241C7.93812 25.1374 8.07145 25.2741 8.18479 25.4341C8.29812 25.5941 8.38479 25.7674 8.44479 25.9541C8.49812 26.1408 8.52479 26.3308 8.52479 26.5241C8.51812 26.7174 8.48145 26.9074 8.41479 27.0941C8.34812 27.2741 8.25145 27.4408 8.12479 27.5941C8.01145 27.7474 7.87145 27.8774 7.70479 27.9841C7.54479 28.0908 7.36812 28.1674 7.17479 28.2141C6.98812 28.2608 6.79812 28.2774 6.60479 28.2641C6.40479 28.2441 6.21479 28.1974 6.03479 28.1241C5.85479 28.0441 5.69479 27.9408 5.55479 27.8141C5.40812 27.6808 5.28479 27.5274 5.18479 27.3541C5.09145 27.1874 5.02479 27.0074 4.98479 26.8141C4.95145 26.6208 4.94812 26.4274 4.97479 26.2341C5.00145 26.0408 5.05812 25.8574 5.14479 25.6841C5.23145 25.5108 5.27479 25.4241 5.27479 25.4241C5.27479 25.4241 5.65812 24.9341 6.42479 23.9541C7.19812 22.9874 7.94812 21.9374 8.67479 20.8041C9.40812 19.6774 10.1481 18.4508 10.8948 17.1241C11.6481 15.8041 12.3648 14.2874 13.0448 12.5741C13.7315 10.8674 14.3148 9.40077 14.7948 8.1741C15.2815 6.94077 15.7748 5.6441 16.2748 4.2841C16.7748 2.91743 17.2915 2.00077 17.8248 1.5341C18.3581 1.06743 19.1148 0.850768 20.0948 0.884101C21.0748 0.917434 21.7615 1.37743 22.1548 2.2641C22.5481 3.15077 22.7915 3.95077 22.8848 4.6641C22.9715 5.37743 23.1181 6.23743 23.3248 7.2441C23.5315 8.25077 23.7515 9.38077 23.9848 10.6341C24.2248 11.8941 24.5281 13.3641 24.8948 15.0441C25.2615 16.7308 25.3681 18.4674 25.2148 20.2541C25.0615 22.0408 25.0681 22.9874 25.2348 23.0941C25.4015 23.1941 25.5515 23.3141 25.6848 23.4541C25.8248 23.5874 25.9448 23.7374 26.0448 23.9041C26.1448 24.0774 26.2215 24.2574 26.2748 24.4441C26.3348 24.6308 26.3681 24.8208 26.3748 25.0141C26.3881 25.2074 26.3748 25.4008 26.3348 25.5941C26.2948 25.7874 26.2348 25.9741 26.1548 26.1541C26.0748 26.3274 25.9715 26.4908 25.8448 26.6441C25.7248 26.7974 25.5881 26.9341 25.4348 27.0541C25.2748 27.1741 25.1048 27.2708 24.9248 27.3441C24.7515 27.4241 24.5681 27.4808 24.3748 27.5141C24.1815 27.5474 23.9881 27.5574 23.7948 27.5441C23.5948 27.5308 23.4015 27.4941 23.2148 27.4341C23.0281 27.3741 22.7548 27.2441 22.3948 27.0441C22.0348 26.8441 21.4881 26.4441 20.7548 25.8441C20.0281 25.2441 19.3415 24.6974 18.6948 24.2041C18.0481 23.7241 17.2681 23.1674 16.3548 22.5341C15.4415 21.9008 14.3648 21.2074 13.1248 20.4541C11.8848 19.7074 10.7981 19.0041 9.86479 18.3441C8.93145 17.6841 7.70812 16.8774 6.19479 15.9241C4.68145 14.9641 3.67479 14.1808 3.17479 13.5741C2.67479 12.9674 2.34479 12.6408 2.18479 12.5941C2.01812 12.5474 1.86479 12.4808 1.72479 12.3941C1.57812 12.3074 1.44479 12.2074 1.32479 12.0941C1.20479 11.9741 1.09812 11.8441 1.00479 11.7041C0.91812 11.5574 0.84812 11.4041 0.794787 11.2441C0.741454 11.0841 0.711453 10.9208 0.704787 10.7541C0.691453 10.5874 0.69812 10.4208 0.724787 10.2541C0.751453 10.0874 0.79812 9.92743 0.864787 9.7741C0.931453 9.62077 1.01812 9.47743 1.12479 9.3441C1.22479 9.21077 1.33812 9.09077 1.46479 8.9841C1.59812 8.87743 1.74145 8.79077 1.89479 8.7241C2.04812 8.65077 2.20812 8.59743 2.37479 8.5641C2.53479 8.53077 2.70145 8.51743 2.87479 8.5241C3.04145 8.53077 3.34145 8.59077 3.77479 8.7041C4.20812 8.81077 4.91812 8.9541 5.90479 9.1341C6.89145 9.32077 8.03145 9.4741 9.32479 9.5941C10.6181 9.72077 12.2915 9.8641 14.3448 10.0241C16.3981 10.1774 18.0015 10.3041 19.1548 10.4041C20.3015 10.4974 21.3781 10.6141 22.3848 10.7541C23.3981 10.8874 24.5981 11.1308 25.9848 11.4841C27.3715 11.8308 28.1448 11.9708 28.3048 11.9041C28.4715 11.8374 28.6415 11.7874 28.8148 11.7541C28.9881 11.7274 29.1615 11.7208 29.3348 11.7341C29.5081 11.7541 29.6781 11.7908 29.8448 11.8441C30.0115 11.8974 30.1681 11.9708 30.3148 12.0641C30.4681 12.1641 30.6048 12.2774 30.7248 12.4041C30.8448 12.5308 30.9481 12.6674 31.0348 12.8141C31.1215 12.9674 31.1915 13.1308 31.2448 13.3041C31.2915 13.4708 31.3181 13.6408 31.3248 13.8141C31.3315 13.9874 31.3181 14.1608 31.2848 14.3341C31.2448 14.5074 31.1881 14.6741 31.1148 14.8341C31.0415 14.9941 30.9481 15.1408 30.8348 15.2741C30.7215 15.4074 30.5948 15.5274 30.4548 15.6341C30.3148 15.7408 29.9015 15.9641 29.2148 16.3041C28.5215 16.6441 27.7915 16.9841 27.0248 17.3241C26.2515 17.6641 25.3648 18.0374 24.3648 18.4441C23.3581 18.8508 22.2281 19.3774 20.9748 20.0241C19.7215 20.6708 18.1181 21.4841 16.1648 22.4641C14.2115 23.4374 12.4515 24.1908 10.8848 24.7241C9.32479 25.2508 8.46145 25.5308 8.29479 25.5641C8.12812 25.5908 7.96479 25.5974 7.80479 25.5841C7.63145 25.5708 7.46479 25.5374 7.30479 25.4841C7.14479 25.4308 6.99479 25.3608 6.85479 25.2741C6.71479 25.1808 6.58479 25.0741 6.46479 24.9541C6.35145 24.8341 6.25145 24.7008 6.16479 24.5541C6.07812 24.4074 6.01145 24.2541 5.96479 24.0941C5.91812 23.9341 5.89145 23.7708 5.88479 23.6041C5.87812 23.4374 5.89145 23.2741 5.92479 23.1141C5.95812 22.9474 6.00812 22.7874 6.07479 22.6341C6.14812 22.4808 6.23812 22.3408 6.34479 22.2141C6.45145 22.0808 6.57145 21.9641 6.70479 21.8641C6.83812 21.7574 6.98145 21.6708 7.13479 21.6041C7.28812 21.5441 7.36479 21.5141 7.36479 21.5141Z" fill="black"/>
</svg>
