<svg width="90" height="57" viewBox="0 0 90 57" fill="none" xmlns="http://www.w3.org/2000/svg">
<path d="M36.7 18.98C36.7 18.98 37.2433 18.6267 38.33 17.92C39.41 17.2133 40.5233 16.3933 41.67 15.46C42.8167 14.5267 44.61 13.41 47.05 12.11C49.4967 10.8167 51.9333 9.43334 54.36 7.96C56.78 6.48667 58.2333 5.66001 58.72 5.48001C59.2067 5.30001 59.71 5.20001 60.23 5.18001C60.75 5.16667 61.2567 5.23667 61.75 5.39C62.25 5.53667 62.71 5.76 63.13 6.06C63.5567 6.36667 63.92 6.73001 64.22 7.15001C64.5267 7.57001 64.7567 8.02667 64.91 8.52001C65.0633 9.01334 65.1333 9.52001 65.12 10.04C65.1067 10.56 65.0133 11.0633 64.84 11.55C64.66 12.0367 64.41 12.4833 64.09 12.89C63.7633 13.2967 63.3833 13.64 62.95 13.92C62.51 14.2 62.04 14.4033 61.54 14.53C61.0333 14.6567 60.5233 14.7 60.01 14.66C59.49 14.62 58.99 14.4967 58.51 14.29C58.0367 14.09 57.6067 13.8167 57.22 13.47C56.8333 13.1233 56.51 12.7267 56.25 12.28C55.9967 11.8267 55.82 11.3467 55.72 10.84C55.62 10.3267 55.6033 9.81334 55.67 9.3C55.7367 8.78667 55.8867 8.29667 56.12 7.83001C56.3467 7.36334 56.6433 6.94667 57.01 6.58001C57.3767 6.21334 57.79 5.91334 58.25 5.68001C58.7167 5.44667 59.2067 5.29667 59.72 5.23001C60.2333 5.15667 60.7433 5.16667 61.25 5.26001C61.7633 5.36001 62.2467 5.53667 62.7 5.79001C63.1533 6.04334 63.5533 6.36334 63.9 6.75001C64.2467 7.13001 64.5233 7.56001 64.73 8.04001C64.9367 8.51334 65.0633 9.01001 65.11 9.53001C65.15 10.0433 65.11 10.5533 64.99 11.06C64.8633 11.56 64.66 12.03 64.38 12.47C64.1067 12.91 63.7667 13.2933 63.36 13.62C62.96 13.9467 62.76 14.11 62.76 14.11C62.76 14.11 61.5233 14.7667 59.05 16.08C56.5767 17.4 54.35 18.7067 52.37 20C50.39 21.2933 48.63 22.4967 47.09 23.61C45.5567 24.7233 44.2067 25.5733 43.04 26.16C41.88 26.74 41.13 27.1033 40.79 27.25C40.4433 27.39 40.0867 27.49 39.72 27.55C39.3533 27.61 38.9867 27.6233 38.62 27.59C38.2467 27.5633 37.8833 27.49 37.53 27.37C37.1767 27.25 36.8433 27.09 36.53 26.89C36.2167 26.69 35.93 26.4533 35.67 26.18C35.4167 25.9133 35.1967 25.6167 35.01 25.29C34.8233 24.97 34.68 24.63 34.58 24.27C34.48 23.91 34.42 23.5467 34.4 23.18C34.3867 22.8067 34.42 22.4367 34.5 22.07C34.5733 21.7033 34.69 21.3533 34.85 21.02C35.01 20.68 35.21 20.3667 35.45 20.08C35.6833 19.7933 35.95 19.54 36.25 19.32C36.55 19.0933 36.7 18.98 36.7 18.98Z" fill="black"/>
<path d="M20.2133 19.7513C20.2133 19.7513 19.7722 18.9153 18.8901 17.2434C18.004 15.5842 16.7966 13.9453 15.2679 12.3269C13.7457 10.7106 12.8474 9.67347 12.573 9.21567C12.2987 8.75786 12.104 8.2694 11.989 7.75028C11.8741 7.23115 11.8444 6.70764 11.9001 6.17974C11.9578 5.64549 12.0981 5.13746 12.321 4.65565C12.5459 4.16749 12.839 3.72895 13.2003 3.34003C13.5679 2.95314 13.9871 2.63507 14.4579 2.38585C14.9288 2.13663 15.426 1.96925 15.9498 1.88372C16.4736 1.79819 16.9985 1.79698 17.5247 1.88009C18.0573 1.96521 18.5572 2.13093 19.0246 2.37723C19.4963 2.6319 19.9163 2.95056 20.2844 3.33323C20.6505 3.72224 20.9456 4.15866 21.1698 4.64249C21.3939 5.12631 21.534 5.63242 21.59 6.16083C21.6525 6.69125 21.6252 7.21769 21.5083 7.74014C21.3998 8.25826 21.2065 8.74596 20.9284 9.20326C20.6567 9.66258 20.3157 10.0649 19.9053 10.4102C19.5032 10.7513 19.0538 11.0213 18.557 11.2203C18.0601 11.4193 17.5484 11.5331 17.0217 11.5617C16.4866 11.5947 15.9619 11.54 15.4475 11.3977C14.9331 11.2554 14.4545 11.0335 14.0116 10.732C13.5751 10.4326 13.1936 10.0702 12.867 9.64472C12.5447 9.22767 12.2998 8.76523 12.1323 8.2574C11.9564 7.75391 11.8689 7.2365 11.8697 6.70517C11.8725 6.16748 11.9578 5.64549 12.1255 5.13917C12.2932 4.63285 12.5385 4.16865 12.8614 3.74655C13.1842 3.32445 13.5649 2.96267 14.0033 2.6612C14.4481 2.36175 14.9277 2.1398 15.4422 1.99537C15.9483 1.85528 16.4704 1.79718 17.0084 1.82109C17.538 1.84933 18.0509 1.9632 18.5471 2.1627C19.0434 2.3622 19.4932 2.63089 19.8965 2.96877C20.3042 3.31502 20.508 3.48815 20.508 3.48815C20.508 3.48815 21.41 4.63482 23.214 6.92817C25.02 9.21516 26.3495 11.2075 27.2024 12.9052C28.0681 14.6069 28.5636 15.635 28.6888 15.9895C28.8225 16.3397 28.9109 16.7 28.9542 17.0705C28.9955 17.4473 28.9956 17.8215 28.9545 18.1932C28.9071 18.5628 28.8142 18.9215 28.6758 19.2693C28.5438 19.6191 28.3703 19.9452 28.1554 20.2477C27.9384 20.5565 27.6894 20.8342 27.4083 21.0807C27.1252 21.3336 26.8172 21.5435 26.4844 21.7107C26.1559 21.8862 25.8067 22.0166 25.4369 22.1021C25.0734 22.1895 24.7029 22.2328 24.3255 22.2319C23.9544 22.233 23.5848 22.1856 23.2165 22.0897C22.859 22.0041 22.5156 21.8741 22.1863 21.6996C21.859 21.5188 21.5533 21.3028 21.2693 21.0518C20.9916 20.8028 20.7483 20.5227 20.5393 20.2115C20.322 19.9047 20.2133 19.7513 20.2133 19.7513Z" fill="black"/>
<path d="M34.81 46.54C34.81 46.54 34.0233 47.79 32.45 50.29C30.8833 52.79 29.9233 54.23 29.57 54.61C29.2167 54.99 28.81 55.3033 28.35 55.55C27.89 55.7967 27.4033 55.9667 26.89 56.06C26.3833 56.1467 25.8733 56.15 25.36 56.07C24.8467 55.99 24.3567 55.83 23.89 55.59C23.43 55.35 23.02 55.0433 22.66 54.67C22.3 54.29 22.01 53.8667 21.79 53.4C21.57 52.9267 21.4267 52.4333 21.36 51.92C21.3 51.4067 21.3267 50.8933 21.44 50.38C21.5467 49.8733 21.73 49.3967 21.99 48.95C22.2567 48.5033 22.5867 48.11 22.98 47.77C23.3733 47.43 23.81 47.16 24.29 46.96C24.7767 46.7667 25.2767 46.6533 25.79 46.62C26.31 46.5867 26.8233 46.64 27.33 46.78C27.83 46.9133 28.2967 47.1233 28.73 47.41C29.1633 47.7033 29.5367 48.0533 29.85 48.46C30.17 48.8733 30.4133 49.3267 30.58 49.82C30.7533 50.3067 30.84 50.81 30.84 51.33C30.8467 51.85 30.77 52.3567 30.61 52.85C30.4433 53.3433 30.2067 53.8 29.9 54.22C29.5867 54.6333 29.2167 54.99 28.79 55.29C28.3633 55.5833 27.9 55.8 27.4 55.94C26.9 56.0867 26.39 56.1467 25.87 56.12C25.35 56.0933 24.8467 55.9867 24.36 55.8C23.88 55.6133 23.44 55.3533 23.04 55.02C22.64 54.6867 22.3033 54.2967 22.03 53.85C21.7633 53.41 21.57 52.9367 21.45 52.43C21.3367 51.9233 21.3067 51.41 21.36 50.89C21.4133 50.3767 21.5467 49.88 21.76 49.4C21.9733 48.9267 22.08 48.6933 22.08 48.7C22.08 48.7 22.9333 47.4933 24.64 45.08C26.34 42.6667 27.31 41.32 27.55 41.04C27.79 40.7667 28.06 40.52 28.36 40.3C28.66 40.0867 28.98 39.9133 29.32 39.78C29.6667 39.6467 30.02 39.5533 30.38 39.5C30.7467 39.4467 31.11 39.44 31.47 39.48C31.8367 39.52 32.1933 39.6033 32.54 39.73C32.8867 39.8567 33.2133 40.02 33.52 40.22C33.8267 40.4267 34.1033 40.6667 34.35 40.94C34.5967 41.2067 34.81 41.5033 34.99 41.83C35.1633 42.15 35.2967 42.49 35.39 42.85C35.4833 43.2033 35.5333 43.5633 35.54 43.93C35.5467 44.29 35.51 44.65 35.43 45.01C35.3433 45.37 35.2167 45.7133 35.05 46.04C34.89 46.3733 34.81 46.54 34.81 46.54Z" fill="black"/>
<path d="M43.56 29.67C43.56 29.67 45.7533 30.0333 50.14 30.76C54.5333 31.4867 57.98 32.0867 60.48 32.56C62.9867 33.04 65.8367 33.7167 69.03 34.59C72.23 35.47 74.7567 36.0167 76.61 36.23C78.4567 36.45 80.43 36.5833 82.53 36.63C84.6367 36.6767 85.9133 36.7533 86.36 36.86C86.8067 36.9733 87.2233 37.1533 87.61 37.4C87.9967 37.6533 88.3333 37.9567 88.62 38.31C88.9067 38.67 89.1267 39.0667 89.28 39.5C89.44 39.9333 89.5267 40.3767 89.54 40.83C89.5467 41.29 89.4833 41.74 89.35 42.18C89.2166 42.62 89.0133 43.0267 88.74 43.4C88.4733 43.7733 88.1533 44.0933 87.78 44.36C87.4067 44.6267 87 44.8267 86.56 44.96C86.12 45.0933 85.67 45.1533 85.21 45.14C84.75 45.1267 84.3067 45.04 83.88 44.88C83.4467 44.72 83.0533 44.4967 82.7 44.21C82.34 43.9233 82.0367 43.5867 81.79 43.2C81.5433 42.8133 81.3633 42.3967 81.25 41.95C81.1433 41.5033 81.11 41.05 81.15 40.59C81.1833 40.13 81.2933 39.69 81.48 39.27C81.66 38.85 81.9033 38.47 82.21 38.13C82.5167 37.7833 82.87 37.5 83.27 37.28C83.67 37.0533 84.0967 36.8967 84.55 36.81C85.0033 36.7233 85.4567 36.7133 85.91 36.78C86.3633 36.84 86.7967 36.9733 87.21 37.18C87.6233 37.3867 87.99 37.65 88.31 37.97C88.6367 38.2967 88.9 38.6667 89.1 39.08C89.3066 39.4933 89.44 39.9267 89.5 40.38C89.56 40.8333 89.5467 41.2867 89.46 41.74C89.3733 42.1933 89.2167 42.62 88.99 43.02C88.7633 43.42 88.48 43.77 88.14 44.07C87.7933 44.3767 87.41 44.62 86.99 44.8C86.5633 44.9867 86.1233 45.0967 85.67 45.13C85.21 45.1633 84.98 45.18 84.98 45.18C84.98 45.18 83.8367 44.9833 81.55 44.59C79.2633 44.1967 77.1333 43.7833 75.16 43.35C73.18 42.9233 70.64 42.39 67.54 41.75C64.4467 41.11 61.7 40.59 59.3 40.19C56.9067 39.7967 53.4967 39.3867 49.07 38.96C44.65 38.54 42.27 38.2867 41.93 38.2C41.59 38.1133 41.2633 37.9867 40.95 37.82C40.6433 37.6533 40.36 37.4533 40.1 37.22C39.84 36.9867 39.61 36.7233 39.41 36.43C39.2167 36.1367 39.0567 35.8267 38.93 35.5C38.81 35.1667 38.73 34.8267 38.69 34.48C38.65 34.14 38.6533 33.7933 38.7 33.44C38.7467 33.0933 38.8333 32.7567 38.96 32.43C39.0867 32.1033 39.2533 31.7967 39.46 31.51C39.66 31.2233 39.8933 30.9633 40.16 30.73C40.42 30.4967 40.7067 30.3 41.02 30.14C41.3333 29.98 41.66 29.86 42 29.78C42.3467 29.7 42.69 29.66 43.03 29.66C43.3833 29.6667 43.56 29.67 43.56 29.67Z" fill="black"/>
<path d="M18 41.73C18 41.73 16.9467 41.7233 14.84 41.71C12.7333 41.69 10.67 41.7 8.65001 41.74C6.63001 41.7733 5.36668 41.75 4.86001 41.67C4.34668 41.5833 3.86001 41.42 3.40001 41.18C2.94668 40.9333 2.54001 40.6233 2.18001 40.25C1.82668 39.8767 1.54334 39.4533 1.33001 38.98C1.11001 38.5133 0.973342 38.0233 0.920009 37.51C0.860009 37.0033 0.886675 36.4967 1.00001 35.99C1.11334 35.4833 1.30334 35.0067 1.57001 34.56C1.83668 34.12 2.16668 33.7333 2.56001 33.4C2.95334 33.06 3.39001 32.7967 3.87001 32.61C4.35001 32.4167 4.85001 32.3067 5.37001 32.28C5.88334 32.2533 6.39001 32.3067 6.89001 32.44C7.39001 32.58 7.85334 32.7967 8.28001 33.09C8.70667 33.3767 9.07668 33.7267 9.39001 34.14C9.70334 34.5533 9.94334 35.0033 10.11 35.49C10.27 35.9833 10.35 36.4867 10.35 37C10.35 37.5133 10.27 38.0167 10.11 38.51C9.94334 38.9967 9.70334 39.4467 9.39001 39.86C9.07668 40.2733 8.70667 40.6233 8.28001 40.91C7.84667 41.2033 7.38334 41.42 6.89001 41.56C6.39001 41.6933 5.88001 41.7467 5.36001 41.72C4.84667 41.6933 4.35001 41.5833 3.87001 41.39C3.39001 41.1967 2.95334 40.9333 2.56001 40.6C2.16001 40.2667 1.82667 39.8767 1.56001 39.43C1.29334 38.99 1.10668 38.5167 1.00001 38.01C0.886675 37.5033 0.860009 36.9967 0.920009 36.49C0.973342 35.9767 1.11001 35.4867 1.33001 35.02C1.54334 34.5467 1.83001 34.1233 2.19001 33.75C2.54334 33.3767 2.95001 33.0667 3.41001 32.82C3.86334 32.58 4.34668 32.4167 4.86001 32.33C5.36668 32.25 5.62001 32.21 5.62001 32.21C5.62001 32.21 6.63001 32.2267 8.65001 32.26C10.67 32.3 12.7333 32.31 14.84 32.29C16.9467 32.2767 18.1867 32.2933 18.56 32.34C18.94 32.38 19.3067 32.47 19.66 32.61C20.02 32.7433 20.3567 32.9167 20.67 33.13C20.9833 33.35 21.2667 33.6033 21.52 33.89C21.7667 34.17 21.98 34.48 22.16 34.82C22.34 35.1533 22.4733 35.5067 22.56 35.88C22.6533 36.2467 22.7 36.62 22.7 37C22.7 37.38 22.6533 37.7533 22.56 38.12C22.4733 38.4933 22.34 38.8467 22.16 39.18C21.98 39.52 21.7667 39.83 21.52 40.11C21.2667 40.3967 20.9833 40.65 20.67 40.87C20.3567 41.0833 20.02 41.2567 19.66 41.39C19.3067 41.53 18.94 41.62 18.56 41.66C18.1867 41.7067 18 41.73 18 41.73Z" fill="black"/>
</svg>
