<svg width="50" height="51" viewBox="0 0 50 51" fill="none" xmlns="http://www.w3.org/2000/svg">
<path d="M39.17 8.31C39.17 8.31 38.69 9.17333 37.73 10.9C36.7767 12.6267 35.6767 14.4567 34.43 16.39C33.1833 18.3233 31.6367 20.38 29.79 22.56C27.9433 24.74 26.2567 26.7 24.73 28.44C23.2033 30.1867 21.9567 31.65 20.99 32.83C20.0233 34.01 18.79 35.56 17.29 37.48C15.79 39.4067 14.5867 41.0567 13.68 42.43C12.78 43.7967 11.88 45.1133 10.98 46.38C10.0867 47.6467 9.44335 48.47 9.05001 48.85C8.65001 49.2233 8.20335 49.5267 7.71001 49.76C7.21001 49.9933 6.69002 50.14 6.15002 50.2C5.60335 50.26 5.06335 50.2333 4.53002 50.12C3.99002 50 3.48668 49.8 3.02002 49.52C2.54668 49.24 2.13335 48.89 1.78001 48.47C1.42668 48.0567 1.14668 47.5967 0.940014 47.09C0.740014 46.5767 0.623349 46.0467 0.590016 45.5C0.556682 44.9533 0.613347 44.4167 0.760014 43.89C0.906681 43.3633 1.13335 42.8733 1.44001 42.42C1.74668 41.9667 2.11668 41.5733 2.55001 41.24C2.98335 40.9067 3.46002 40.6533 3.98002 40.48C4.50002 40.3 5.03335 40.21 5.58002 40.21C6.12668 40.21 6.66002 40.2967 7.18002 40.47C7.70002 40.6433 8.17668 40.8933 8.61002 41.22C9.05002 41.5533 9.42335 41.9467 9.73001 42.4C10.0367 42.8533 10.2667 43.3433 10.42 43.87C10.5667 44.3967 10.6233 44.9333 10.59 45.48C10.5633 46.0267 10.45 46.5533 10.25 47.06C10.05 47.5733 9.77335 48.0367 9.42002 48.45C9.06668 48.87 8.65335 49.2233 8.18002 49.51C7.71335 49.79 7.21335 49.99 6.68002 50.11C6.14668 50.23 5.60668 50.26 5.06002 50.2C4.51335 50.14 3.99335 49.9967 3.50002 49.77C3.00002 49.5433 2.55002 49.24 2.15002 48.86C1.75668 48.4867 1.43001 48.06 1.17001 47.58C0.910014 47.0933 0.736684 46.58 0.650017 46.04C0.556684 45.5 0.556684 44.96 0.650017 44.42C0.736684 43.88 0.906682 43.3667 1.16002 42.88C1.41335 42.4 1.54002 42.16 1.54002 42.16C1.54002 42.16 1.98002 41.62 2.86002 40.54C3.74002 39.46 4.74002 38.1233 5.86002 36.53C6.98002 34.93 8.44002 33.1967 10.24 31.33C12.04 29.4633 13.4633 28.0233 14.51 27.01C15.5567 25.9967 16.7833 24.6867 18.19 23.08C19.5967 21.4667 21.0267 19.61 22.48 17.51C23.9267 15.4033 25.2 13.4333 26.3 11.6C27.4 9.76667 28.43 7.98667 29.39 6.26C30.35 4.54667 30.9433 3.53333 31.17 3.22C31.3967 2.90667 31.6567 2.62667 31.95 2.38C32.2433 2.13333 32.56 1.92667 32.9 1.76C33.2467 1.58667 33.6067 1.46 33.98 1.38C34.3533 1.29333 34.73 1.25667 35.11 1.27C35.49 1.27667 35.8667 1.33 36.24 1.43C36.6067 1.53 36.96 1.67333 37.3 1.86C37.6333 2.04667 37.94 2.27 38.22 2.53C38.5 2.79 38.7467 3.08333 38.96 3.41C39.1667 3.73 39.3367 4.07 39.47 4.43C39.5967 4.79 39.6767 5.16333 39.71 5.55C39.75 5.92333 39.7433 6.3 39.69 6.68C39.63 7.06 39.53 7.42667 39.39 7.78C39.2433 8.13333 39.17 8.31 39.17 8.31Z" fill="black"/>
<path d="M38 10.91C38 10.91 36.9467 10.8967 34.84 10.87C32.7334 10.8367 30.4667 10.7767 28.04 10.69C25.6067 10.6033 23.6834 10.5967 22.27 10.67C20.85 10.7433 19.2667 10.7933 17.52 10.82C15.7667 10.8533 13.6567 10.9167 11.19 11.01C8.73002 11.11 7.22336 11.1133 6.67002 11.02C6.12336 10.9333 5.60336 10.76 5.11002 10.5C4.61669 10.2333 4.18002 9.9 3.80002 9.5C3.42002 9.09333 3.11336 8.63666 2.88003 8.13C2.64003 7.63 2.49002 7.10333 2.43002 6.55C2.37002 6.00333 2.40002 5.45666 2.52002 4.91C2.64002 4.36333 2.84336 3.85333 3.13003 3.38C3.41669 2.9 3.77336 2.48 4.20002 2.12C4.62669 1.76 5.09669 1.47666 5.61002 1.27C6.13002 1.06333 6.66669 0.946663 7.22002 0.919996C7.78002 0.886663 8.32669 0.946663 8.86002 1.1C9.40002 1.24666 9.90002 1.47666 10.36 1.79C10.82 2.10333 11.2167 2.48 11.55 2.92C11.89 3.36666 12.15 3.85333 12.33 4.38C12.5034 4.90666 12.59 5.44666 12.59 6C12.59 6.55333 12.5034 7.09333 12.33 7.62C12.15 8.14666 11.89 8.63333 11.55 9.08C11.2167 9.52 10.82 9.89666 10.36 10.21C9.90002 10.5233 9.40002 10.7533 8.86002 10.9C8.32669 11.0533 7.78002 11.1133 7.22002 11.08C6.66669 11.0533 6.13002 10.9367 5.61002 10.73C5.09669 10.5233 4.62669 10.24 4.20002 9.88C3.77336 9.52 3.41669 9.1 3.13003 8.62C2.84336 8.14 2.64002 7.63 2.52002 7.09C2.40002 6.54333 2.37002 5.99666 2.43002 5.45C2.49669 4.89666 2.64669 4.36666 2.88003 3.86C3.11336 3.36 3.42002 2.90666 3.80002 2.5C4.18669 2.09333 4.62336 1.76 5.11002 1.5C5.60336 1.24 6.12669 1.06666 6.68002 0.979996C7.22669 0.886663 7.50002 0.839996 7.50002 0.839996C7.50002 0.839996 8.73002 0.889996 11.19 0.989996C13.6567 1.08333 15.7667 1.14666 17.52 1.18C19.2667 1.20666 20.85 1.25666 22.27 1.33C23.6834 1.40333 25.6067 1.39666 28.04 1.31C30.4667 1.22333 32.7334 1.16333 34.84 1.13C36.9467 1.10333 38.1934 1.11333 38.58 1.16C38.9734 1.20666 39.3567 1.3 39.73 1.44C40.0967 1.58 40.4434 1.76333 40.77 1.99C41.0967 2.21 41.39 2.47 41.65 2.77C41.91 3.06333 42.1334 3.38666 42.32 3.74C42.5 4.08666 42.6367 4.45333 42.73 4.84C42.83 5.22 42.88 5.60666 42.88 6C42.88 6.39333 42.83 6.78 42.73 7.16C42.6367 7.54666 42.5 7.91333 42.32 8.26C42.1334 8.61333 41.91 8.93666 41.65 9.23C41.39 9.53 41.0967 9.79 40.77 10.01C40.4434 10.2367 40.0967 10.42 39.73 10.56C39.3567 10.7 38.9734 10.7933 38.58 10.84C38.1934 10.8867 38 10.91 38 10.91Z" fill="black"/>
<path d="M41.28 4.43001C41.28 4.43001 41.87 6.27668 43.05 9.97001C44.2366 13.67 45.15 16.5233 45.79 18.53C46.43 20.53 46.9233 22.52 47.27 24.5C47.6166 26.4733 48.03 28.4967 48.51 30.57C48.99 32.65 49.24 33.9367 49.26 34.43C49.2733 34.9233 49.2066 35.41 49.06 35.89C48.9133 36.3633 48.6966 36.8 48.41 37.2C48.1233 37.6067 47.7766 37.9533 47.37 38.24C46.97 38.5333 46.5333 38.7533 46.06 38.9C45.5866 39.0467 45.1 39.1133 44.6 39.1C44.1066 39.0867 43.6266 38.9933 43.16 38.82C42.6933 38.6533 42.2666 38.4133 41.88 38.1C41.4933 37.7933 41.1666 37.43 40.9 37.01C40.6266 36.59 40.43 36.14 40.31 35.66C40.19 35.18 40.15 34.6933 40.19 34.2C40.23 33.7067 40.3466 33.23 40.54 32.77C40.74 32.3167 41.0033 31.9033 41.33 31.53C41.6633 31.1633 42.0466 30.8567 42.48 30.61C42.9066 30.3633 43.3666 30.1933 43.86 30.1C44.3466 30.0067 44.8333 29.9933 45.32 30.06C45.8133 30.1267 46.2833 30.27 46.73 30.49C47.1766 30.71 47.5733 30.9967 47.92 31.35C48.2733 31.6967 48.56 32.0933 48.78 32.54C49 32.98 49.1433 33.4467 49.21 33.94C49.2833 34.4333 49.2733 34.9233 49.18 35.41C49.0866 35.8967 48.9166 36.3567 48.67 36.79C48.43 37.2233 48.1233 37.6067 47.75 37.94C47.3833 38.2667 46.9733 38.53 46.52 38.73C46.06 38.9233 45.5833 39.04 45.09 39.08C44.5966 39.1267 44.11 39.09 43.63 38.97C43.1433 38.85 42.6933 38.6567 42.28 38.39C41.86 38.1233 41.4933 37.7967 41.18 37.41C40.8733 37.0233 40.6333 36.5967 40.46 36.13C40.2866 35.6633 40.2 35.43 40.2 35.43C40.2 35.43 40.02 34.3 39.66 32.04C39.3066 29.7733 39.06 27.85 38.92 26.27C38.78 24.6833 38.46 22.9633 37.96 21.11C37.46 19.25 36.4633 16.53 34.97 12.95C33.47 9.36335 32.68 7.39335 32.6 7.04001C32.5133 6.68001 32.47 6.32001 32.47 5.96001C32.4766 5.59335 32.5266 5.23335 32.62 4.88001C32.7066 4.52668 32.8366 4.18668 33.01 3.86001C33.1833 3.54001 33.3933 3.24335 33.64 2.97001C33.8866 2.69668 34.1633 2.45668 34.47 2.25001C34.77 2.04335 35.0933 1.87668 35.44 1.75001C35.78 1.62335 36.1333 1.54001 36.5 1.50001C36.86 1.46001 37.22 1.46335 37.58 1.51001C37.9466 1.55668 38.3 1.64668 38.64 1.78001C38.98 1.91335 39.3 2.08668 39.6 2.30001C39.9 2.51335 40.1733 2.75668 40.42 3.03001C40.66 3.31001 40.8633 3.61335 41.03 3.94001C41.1966 4.26668 41.28 4.43001 41.28 4.43001Z" fill="black"/>
</svg>
