<svg width="78" height="84" viewBox="0 0 78 84" fill="none" xmlns="http://www.w3.org/2000/svg">
<path d="M23.6695 8.21789C23.6695 8.21789 23.7009 8.82581 23.7638 10.0417C23.8266 11.2575 23.9837 12.9361 24.235 15.0774C24.4863 17.2188 24.8462 19.0395 25.3146 20.5397C25.7886 22.0398 26.3513 23.6368 27.0024 25.3305C27.6593 27.0242 28.3076 28.5788 28.9473 29.9942C29.5871 31.4097 30.2211 32.8826 30.8494 34.413C31.4834 35.9374 32.0974 37.4557 32.6915 38.9679C33.2912 40.4802 34.148 42.2555 35.2618 44.294C36.3757 46.3386 37.5009 48.0172 38.6376 49.3298C39.7742 50.6364 40.8595 51.8341 41.8934 52.9229C42.9329 54.0057 44.1181 55.1973 45.449 56.4979C46.7856 57.7923 48.3192 59.1655 50.05 60.6172C51.7864 62.069 54.2368 63.9139 57.4012 66.152C60.5656 68.3902 63.0845 70.1625 64.958 71.4691C66.8315 72.7757 68.5508 73.8252 70.1159 74.6176C71.6866 75.41 73.0518 76.027 74.2113 76.4686C75.3765 76.9041 76.1134 77.2247 76.4218 77.4304C76.7303 77.636 77.0016 77.8901 77.2358 78.1925C77.4699 78.495 77.6527 78.8277 77.7841 79.1906C77.9098 79.5536 77.9812 79.9286 77.9983 80.3157C78.0097 80.7029 77.964 81.0809 77.8612 81.4499C77.7584 81.825 77.6013 82.1698 77.39 82.4843C77.1786 82.8049 76.9245 83.0801 76.6274 83.31C76.3304 83.5399 76.0077 83.7122 75.6593 83.8272C75.3108 83.9482 74.9539 84.0056 74.5883 83.9996C74.2227 83.9875 73.8657 83.9179 73.5173 83.7909C73.1746 83.6578 72.8604 83.4733 72.5748 83.2374C72.2835 82.9954 72.0379 82.7111 71.838 82.3845C71.6381 82.0639 71.4924 81.7161 71.4011 81.341C71.3097 80.96 71.2754 80.5758 71.2982 80.1887C71.3268 79.8016 71.4125 79.4296 71.5553 79.0727C71.6924 78.7158 71.8837 78.3922 72.1293 78.1018C72.3692 77.8115 72.6491 77.5695 72.969 77.3759C73.2831 77.1763 73.6201 77.0402 73.98 76.9676C74.3398 76.889 74.6997 76.8739 75.0595 76.9223C75.4251 76.9707 75.7735 77.0795 76.1048 77.2489C76.4361 77.4183 76.7331 77.6391 76.9959 77.9113C77.2529 78.1835 77.4642 78.492 77.6299 78.8368C77.8012 79.1816 77.9126 79.5475 77.964 79.9347C78.0154 80.3157 78.0097 80.6968 77.9469 81.0779C77.8783 81.459 77.7555 81.8189 77.5785 82.1577C77.4014 82.5024 77.1786 82.8049 76.9102 83.065C76.6417 83.3251 76.339 83.5338 76.002 83.6911C75.665 83.8483 75.3137 83.9451 74.9481 83.9814C74.5826 84.0177 74.2227 83.9905 73.8686 83.8998C73.5145 83.809 73.3374 83.7637 73.3374 83.7637C73.3374 83.7637 72.7005 83.4461 71.4268 82.8109C70.153 82.1698 68.6793 81.3562 67.0057 80.3702C65.3264 79.3842 63.5386 78.2712 61.6423 77.0311C59.7402 75.7911 57.0927 74.1095 53.6999 71.9863C50.307 69.8691 47.5624 68.0907 45.4662 66.6511C43.3642 65.2114 41.5592 63.7839 40.0513 62.3684C38.5433 60.959 37.2839 59.6554 36.2728 58.4577C35.2618 57.26 34.0738 55.8567 32.7086 54.2476C31.3378 52.6447 29.8127 50.6606 28.1334 48.2954C26.4541 45.9303 25.3288 44.0007 24.7576 42.5066C24.1922 41.0125 23.6238 39.5395 23.0526 38.0878C22.4815 36.63 21.876 35.151 21.2363 33.6508C20.6022 32.1447 19.8825 30.4419 19.0772 28.5425C18.2661 26.6431 17.5349 24.6681 16.8838 22.6175C16.2269 20.5669 15.8585 18.2622 15.7785 15.7035C15.7043 13.1448 15.6986 11.2575 15.7614 10.0417C15.8242 8.82581 15.8756 8.05457 15.9156 7.72792C15.9556 7.39523 16.0299 7.07463 16.1384 6.76614C16.2526 6.45764 16.3983 6.16426 16.5753 5.88601C16.7524 5.6138 16.958 5.36882 17.1922 5.15106C17.4264 4.92724 17.6835 4.73973 17.9633 4.5885C18.2432 4.43123 18.5345 4.31327 18.8373 4.23464C19.1457 4.156 19.4541 4.11668 19.7626 4.11668C20.071 4.11668 20.3795 4.156 20.6879 4.23464C20.9906 4.31327 21.282 4.43123 21.5618 4.5885C21.8417 4.73973 22.0988 4.92724 22.3329 5.15106C22.5671 5.36882 22.7728 5.6138 22.9498 5.88601C23.1269 6.16426 23.2726 6.45764 23.3868 6.76614C23.4953 7.07463 23.5696 7.39523 23.6096 7.72792C23.6495 8.05457 23.6695 8.21789 23.6695 8.21789Z" fill="black"/>
<path d="M21.9902 8.79859C21.9902 8.79859 21.4305 9.25528 20.3109 10.1687C19.2028 11.076 17.6949 12.4522 15.7871 14.2971C13.8851 16.136 12.2857 17.8206 10.9891 19.351C9.69822 20.8814 8.71292 22.2183 8.0332 23.3615C7.3592 24.5048 6.88511 25.2246 6.61094 25.521C6.33106 25.8235 6.01405 26.0684 5.65991 26.256C5.30577 26.4435 4.9345 26.5675 4.54609 26.628C4.15197 26.6945 3.7607 26.6885 3.37229 26.6098C2.98388 26.5372 2.61546 26.3981 2.26704 26.1924C1.92432 25.9928 1.61874 25.7388 1.35028 25.4303C1.08182 25.1218 0.867622 24.774 0.707689 24.3868C0.547755 24.0057 0.450653 23.6065 0.416381 23.1891C0.376398 22.7717 0.402102 22.3574 0.493492 21.9461C0.584883 21.5408 0.736249 21.1597 0.947589 20.8028C1.15893 20.4459 1.41596 20.1344 1.7187 19.8682C2.02714 19.6021 2.367 19.3964 2.73827 19.2512C3.10954 19.1 3.49224 19.0183 3.88636 19.0062C4.28048 18.9881 4.66889 19.0395 5.05159 19.1605C5.42858 19.2754 5.77986 19.4539 6.10544 19.6958C6.4253 19.9378 6.70233 20.2281 6.93652 20.5669C7.17071 20.9056 7.34778 21.2746 7.46773 21.6738C7.58768 22.0731 7.6448 22.4814 7.63908 22.8988C7.63337 23.3222 7.56483 23.7305 7.43345 24.1237C7.30208 24.5169 7.11359 24.8798 6.86798 25.2125C6.62236 25.5391 6.33391 25.8174 6.00262 26.0473C5.67133 26.2771 5.31434 26.4435 4.93164 26.5463C4.54894 26.6552 4.15768 26.6945 3.75784 26.6643C3.36372 26.634 2.98388 26.5372 2.61832 26.3739C2.25276 26.2106 1.92147 25.9928 1.62445 25.7206C1.32743 25.4424 1.08182 25.1218 0.887613 24.7588C0.687696 24.3959 0.547755 24.0088 0.467788 23.5974C0.387821 23.1861 0.373542 22.7717 0.424949 22.3544C0.476356 21.937 0.587738 21.5408 0.759095 21.1657C0.930452 20.7907 1.01613 20.6032 1.01613 20.6032C1.01613 20.6032 1.48165 19.962 2.41269 18.6796C3.34944 17.3972 4.49754 15.9303 5.85697 14.279C7.22211 12.6215 8.91855 10.6072 10.9463 8.23603C12.974 5.86483 14.579 4.26487 15.7614 3.43616C16.9438 2.60745 17.6692 2.11446 17.9376 1.95718C18.2118 1.79991 18.4974 1.67893 18.7944 1.59424C19.0915 1.51561 19.3942 1.47327 19.7026 1.46722C20.0054 1.46117 20.3081 1.49444 20.6108 1.56702C20.9135 1.63961 21.202 1.74849 21.4762 1.89367C21.7503 2.04489 22.0045 2.22636 22.2387 2.43808C22.4729 2.64979 22.6785 2.88873 22.8556 3.15488C23.0384 3.42104 23.1869 3.70534 23.3011 4.00779C23.4154 4.31024 23.4925 4.62479 23.5325 4.95143C23.5781 5.27203 23.5839 5.59262 23.5496 5.91322C23.5153 6.23987 23.4468 6.55744 23.344 6.86594C23.2411 7.16838 23.1041 7.45571 22.9327 7.72792C22.7613 8.00012 22.5614 8.24813 22.333 8.47194C22.1045 8.6897 21.9902 8.79859 21.9902 8.79859Z" fill="black"/>
<path d="M22.213 0.904651C22.213 0.904651 24.1551 1.92693 28.0392 3.97149C31.9233 6.00999 34.7992 7.54039 36.667 8.56267C38.5405 9.59099 40.157 10.4681 41.5164 11.194C42.8701 11.9199 44.004 12.4612 44.9179 12.8181C45.8318 13.175 46.4572 13.4714 46.7942 13.7073C47.1312 13.9372 47.4254 14.2185 47.6767 14.5512C47.928 14.8839 48.1222 15.2498 48.2593 15.6491C48.3964 16.0543 48.4707 16.4687 48.4821 16.8921C48.4878 17.3216 48.4307 17.739 48.3107 18.1443C48.1908 18.5495 48.0137 18.9246 47.7795 19.2694C47.5396 19.6142 47.2569 19.9106 46.9313 20.1586C46.6 20.4066 46.243 20.5911 45.8603 20.7121C45.4719 20.8391 45.0778 20.8935 44.678 20.8754C44.2781 20.8633 43.8897 20.7816 43.5127 20.6304C43.1357 20.4852 42.7902 20.2765 42.476 20.0043C42.1619 19.7382 41.8963 19.4236 41.6792 19.0607C41.4679 18.7038 41.3137 18.3167 41.2165 17.8993C41.1252 17.4879 41.0966 17.0675 41.1309 16.6381C41.1651 16.2146 41.2622 15.8093 41.4222 15.4222C41.5821 15.029 41.7963 14.6752 42.0648 14.3606C42.3389 14.0461 42.6502 13.7829 42.9987 13.5712C43.3528 13.3656 43.7269 13.2234 44.1211 13.1448C44.5152 13.0661 44.9122 13.0571 45.312 13.1176C45.7118 13.178 46.0917 13.3051 46.4515 13.4986C46.8114 13.6862 47.1312 13.9311 47.4111 14.2336C47.6967 14.536 47.928 14.8808 48.1051 15.268C48.2822 15.6491 48.3964 16.0513 48.4478 16.4747C48.4992 16.8982 48.4878 17.3186 48.4135 17.736C48.3336 18.1533 48.1936 18.5465 47.9937 18.9155C47.7938 19.2845 47.5425 19.6111 47.2398 19.8954C46.937 20.1797 46.6029 20.4036 46.2373 20.5669C45.866 20.7362 45.4776 20.8361 45.0721 20.8663C44.6723 20.9026 44.2781 20.8663 43.8897 20.7574C43.5013 20.6546 43.3071 20.6032 43.3071 20.6032C43.3071 20.6032 42.7559 20.3189 41.6535 19.7503C40.5568 19.1756 39.4116 18.486 38.2178 17.6815C37.0297 16.8709 35.5332 15.9908 33.7282 15.0411C31.9176 14.0914 29.0131 12.7274 25.0147 10.949C21.0221 9.16454 18.8944 8.18763 18.6317 8.01826C18.3689 7.84889 18.129 7.64927 17.912 7.41941C17.6949 7.1835 17.5093 6.92642 17.3551 6.64816C17.1951 6.36386 17.0695 6.06746 16.9781 5.75896C16.8924 5.44441 16.841 5.12382 16.8239 4.79717C16.8067 4.47658 16.8267 4.15598 16.8838 3.83538C16.941 3.51479 17.0352 3.20629 17.1666 2.90989C17.2922 2.61349 17.4522 2.33826 17.6464 2.0842C17.8349 1.83015 18.0519 1.60331 18.2975 1.40369C18.5431 1.20408 18.8059 1.03773 19.0858 0.904651C19.3657 0.771574 19.657 0.677815 19.9597 0.623374C20.2681 0.562884 20.5709 0.544737 20.8679 0.568933C21.1763 0.593129 21.4791 0.653619 21.7761 0.750402C22.0674 0.853235 22.213 0.904651 22.213 0.904651Z" fill="black"/>
</svg>
